<svg xmlns="http://www.w3.org/2000/svg" width="8" height="13" fill="none" viewBox="0 0 8 13"><path fill="#fff" d="M7.0089 4.32082C6.68734 4.63162 6.16724 4.63042 5.8472 4.31814L4.81054 3.29791L4.81054 7.56822C4.81054 8.00881 4.44278 8.36597 3.98909 8.36597C3.53541 8.36597 3.16764 8.00881 3.16764 7.56822L3.16764 3.29787L2.13098 4.31818C1.81095 4.63046 1.29085 4.63166 0.969291 4.32086C0.647694 4.01001 0.646503 3.50492 0.966498 3.19264L3.40685 0.802582C3.72689 0.4911 4.24945 0.489385 4.57056 0.801824L7.01169 3.1926C7.33164 3.50484 7.33053 4.00997 7.0089 4.32082Z"/><rect width="6.238" height="1.871" x=".982" y="10.273" fill="#fff" rx=".936"/></svg>