<svg xmlns="http://www.w3.org/2000/svg" width="26" height="22" fill="none" viewBox="0 0 26 22"><circle cx="14.97" cy="11" r="11" fill="#007585" fill-opacity=".25"/><circle cx="11" cy="11" r="11" fill="#007585"/><path fill="#fff" d="M10.78 11.592C9.596 13.264 9.004 14.404 9.004 15.012L6.832 15V14.736C7.32 14.472 7.84 13.952 8.392 13.176C9.232 11.984 9.8 11.168 10.096 10.728L9.112 9.228C8.216 7.852 7.536 7.064 7.072 6.864V6.6L9.784 6.612V6.876C9.784 7.148 9.872 7.46 10.048 7.812C10.248 8.212 10.608 8.796 11.128 9.564C12.104 8.18 12.592 7.192 12.592 6.6H14.704V6.864C14.456 6.992 14.224 7.168 14.008 7.392C13.8 7.616 13.452 8.06 12.964 8.724C12.476 9.38 12.084 9.936 11.788 10.392C13.156 12.4 13.996 13.596 14.308 13.98C14.628 14.356 14.908 14.608 15.148 14.736V15H12.46V14.736C12.46 14.608 12.412 14.452 12.316 14.268C12.228 14.084 12.152 13.936 12.088 13.824C12.032 13.704 11.98 13.604 11.932 13.524C11.884 13.444 11.82 13.34 11.74 13.212C11.66 13.076 11.6 12.972 11.56 12.9L10.78 11.592Z"/></svg>