<svg xmlns="http://www.w3.org/2000/svg" width="17" height="18" fill="none" viewBox="0 0 17 18"><path fill="#fff" d="M8.245 10.468C5.97567 13.6727 4.841 15.8577 4.841 17.023L0.678 17V16.494C1.61333 15.988 2.61 14.9913 3.668 13.504C5.278 11.2193 6.36667 9.65533 6.934 8.812L5.048 5.937C3.33067 3.29967 2.02733 1.78933 1.138 1.406V0.899999L6.336 0.922999V1.429C6.336 1.95033 6.50467 2.54833 6.842 3.223C7.22533 3.98967 7.91533 5.109 8.912 6.581C10.7827 3.92833 11.718 2.03467 11.718 0.899999H15.766V1.406C15.2907 1.65133 14.846 1.98867 14.432 2.418C14.0333 2.84733 13.3663 3.69833 12.431 4.971C11.4957 6.22833 10.7443 7.294 10.177 8.168C12.799 12.0167 14.409 14.309 15.007 15.045C15.6203 15.7657 16.157 16.2487 16.617 16.494V17H11.465V16.494C11.465 16.2487 11.373 15.9497 11.189 15.597C11.0203 15.2443 10.8747 14.9607 10.752 14.746C10.6447 14.516 10.545 14.3243 10.453 14.171C10.361 14.0177 10.2383 13.8183 10.085 13.573C9.93167 13.3123 9.81667 13.113 9.74 12.975L8.245 10.468Z"/></svg>