<svg width="367" height="195" viewBox="0 0 367 195" fill="none" xmlns="http://www.w3.org/2000/svg">
<path fill-rule="evenodd" clip-rule="evenodd" d="M307.314 115.388C183.163 80.5549 -0.919101 36.9246 0.38766 70.5685C2.01645 112.503 264.611 150.131 326.269 158.966C334.521 160.148 339.174 160.815 339.12 160.907C185.038 156.089 280.742 173.2 347.854 182.358C353.389 183.074 367.796 184.336 392.418 185.648C404.493 191.364 419.429 198.255 437.547 206.354C467.522 219.754 463.545 207.258 448.232 187.962C455.874 188.206 463.977 188.44 472.551 188.659C530.239 190.132 471.932 166.541 409.201 145.975C406.706 143.542 404.267 141.198 401.926 138.978C346.228 85.1909 226.88 -17.3922 195.072 2.57288C169.25 18.7798 248.705 76.6975 307.314 115.388Z" fill="#45FFDE"/>
</svg>
