<svg width="1097" height="555" viewBox="0 0 1097 555" fill="none" xmlns="http://www.w3.org/2000/svg">
<path d="M104.176 422.048C518.942 399.518 262.001 443.457 81.6854 468.244C54.8277 471.787 -49.8829 481.413 -253.866 491.571C-457.848 501.729 -124.955 404.182 66.9899 354.139C382.936 270.216 1014.29 122.568 1012.15 203.368C1009.47 304.367 102.907 420.427 104.176 422.048Z" fill="#1AB0C4"/>
<path d="M88.8547 384.653C377.408 271.522 230.998 356.11 121.724 412.545C105.288 420.879 36.6884 451.344 -106.217 506.536C-249.123 561.728 -103.25 432.487 -12.451 360.967C135.334 242.493 452.289 15.4493 537.836 55.0659C644.768 104.587 86.1484 384.182 88.8547 384.653Z" fill="#1AB0C4"/>
</svg>
