<svg width="2048" height="540" viewBox="0 0 2048 540" fill="none" xmlns="http://www.w3.org/2000/svg">
<path d="M-196 520.86V108.388C-196 98.1844 -187.706 89.5106 -177.791 87.1002C-151.511 80.7111 -113.368 65.7556 -83.5 67.0824C656.916 99.9708 1474.97 90.0783 2252.83 89.9149C2263.31 89.9127 2271.67 98.6226 2271.32 109.095C2267.14 235.627 2268.76 356.586 2252.89 482.839C2251.76 491.841 2244.21 498.607 2235.14 498.819C2016.25 503.952 1726.6 511.746 1445.5 518.12C1257.78 522.377 1037.37 526.728 970.09 526.728C822.852 526.728 156.282 528.394 -177.115 539.356C-187.568 539.699 -196 531.319 -196 520.86Z" fill="#F0F6FA"/>
<path d="M1572.88 93.3083C1433.21 95.0116 1298.64 84.4521 1110 130.809C1207.24 128.204 1441.46 101.646 1572.88 93.3083C1596.84 93.0161 1620.94 92.3631 1645.5 91C1629.09 90.391 1603.83 91.3442 1572.88 93.3083Z" fill="#FAFDFF"/>
</svg>
