<svg xmlns="http://www.w3.org/2000/svg" width="1015" height="535" fill="none" viewBox="0 0 1015 535"><path fill="#45FFDE" fill-rule="evenodd" d="M882.265 291.066C525.857 202.183 -2.73628 90.4626 0.489302 174.704C4.50975 279.705 758.932 377.461 936.07 400.415C959.778 403.487 973.145 405.219 972.988 405.449C530.048 391.298 804.947 435.431 997.764 459.266C1013.67 461.135 1055.07 464.488 1125.85 468.107C1160.47 482.581 1203.31 500.033 1255.27 520.553C1341.24 554.505 1330.01 523.168 1286.29 474.657C1308.25 475.371 1331.55 476.066 1356.19 476.73C1522.03 481.2 1354.77 421.352 1174.73 369.019C1167.59 362.894 1160.62 356.993 1153.92 351.402C994.627 215.997 653.097 -42.4249 561.325 7.12405C486.827 47.3464 714.363 193.415 882.265 291.066Z" clip-rule="evenodd"/></svg>