<svg width="2048" height="473" viewBox="0 0 2048 473" fill="none" xmlns="http://www.w3.org/2000/svg">
<path d="M-196 453.86V41.3885C-196 31.1849 -187.706 22.5111 -177.791 20.1007C-151.511 13.7116 -113.368 -1.24388 -83.5 0.0828424C656.916 32.9713 1474.97 23.0788 2252.83 22.9154C2263.31 22.9132 2271.67 31.6231 2271.32 42.0956C2267.14 168.627 2268.76 289.587 2252.89 415.84C2251.76 424.841 2244.21 431.607 2235.14 431.82C2016.25 436.953 1726.6 444.746 1445.5 451.121C1257.78 455.378 1037.37 459.728 970.09 459.728C822.852 459.728 156.282 461.395 -177.115 472.356C-187.568 472.7 -196 464.32 -196 453.86Z" fill="#F0F6FA"/>
</svg>
