<svg width="10" height="20" viewBox="0 0 10 20" fill="none" xmlns="http://www.w3.org/2000/svg">
<path d="M5 8.83117C3.3781 8.83117 2.06612 7.69369 2.06612 6.28751C2.06612 4.89028 3.3781 3.74384 5 3.74384C6.6219 3.74384 7.93388 4.88133 7.93388 6.28751C7.93388 6.78012 8.39876 7.18316 8.96694 7.18316C9.53512 7.18316 10 6.78012 10 6.28751C10 4.23645 8.34711 2.47201 6.03306 2.0421V0.895656C6.03306 0.403045 5.56818 0 5 0C4.43182 0 3.96694 0.403045 3.96694 0.895656V2.0421C1.27066 2.53471 -0.464877 4.83654 0.113635 7.18316C0.599173 9.18943 2.64463 10.6135 5 10.6225C6.6219 10.6225 7.93388 11.76 7.93388 13.1661C7.93388 14.5723 6.6219 15.7098 5 15.7098C3.3781 15.7098 2.06612 14.5723 2.06612 13.1661C2.06612 12.6735 1.60124 12.2705 1.03306 12.2705C0.464876 12.2705 0 12.6735 0 13.1661C0 15.2082 1.65289 16.9816 3.96694 17.4026V19.1043C3.96694 19.597 4.43182 20 5 20C5.56818 20 6.03306 19.597 6.03306 19.1043V17.4026C8.72934 16.901 10.4545 14.5992 9.88636 12.2615C9.40083 10.2642 7.3657 8.83117 5 8.83117Z" fill="white"/>
</svg>
