<svg width="21" height="19" viewBox="0 0 21 19" fill="none" xmlns="http://www.w3.org/2000/svg">
<path d="M1.33866 18.2756L1.33863 18.2756C1.06826 18.1308 0.899588 17.8488 0.900001 17.5421M1.33866 18.2756L1.32521 2.45249L1.26971 2.3693C1.03869 2.52342 0.899958 2.78281 0.900001 3.06051H0.99932L0.900001 3.06053V17.5421M1.33866 18.2756C1.60892 18.4202 1.93691 18.4042 2.19184 18.2341L2.19193 18.234M1.33866 18.2756L2.19193 18.234M0.900001 17.5421C0.900001 17.542 0.900001 17.542 0.900001 17.542L1 17.5421H0.900001V17.5421ZM2.19193 18.234C4.56612 16.6453 7.66395 16.6452 10.0382 18.2337C10.0534 18.244 10.0681 18.2495 10.0736 18.2515L10.0737 18.2516L10.0766 18.2538L10.0772 18.2543C10.082 18.2582 10.0919 18.2661 10.1035 18.2731L10.103 18.2739M2.19193 18.234L10.103 18.2739M10.103 18.2739L10.1157 18.2794M10.103 18.2739L10.1157 18.2794M10.1157 18.2794C10.1426 18.2909 10.17 18.301 10.1979 18.3097C10.2267 18.3225 10.2562 18.3334 10.2863 18.3424L10.2862 18.3426M10.1157 18.2794L10.2862 18.3426M10.2862 18.3426L10.2925 18.3441M10.2862 18.3426L10.2925 18.3441M10.2925 18.3441C10.3381 18.3546 10.3844 18.3615 10.431 18.3647L10.431 18.3649M10.2925 18.3441L10.431 18.3649M10.431 18.3649H10.4371M10.431 18.3649H10.4371M10.4371 18.3649C10.4375 18.365 10.4402 18.3654 10.4479 18.3671L10.4496 18.3674C10.459 18.3695 10.4784 18.3737 10.5 18.3737H10.5H10.5H10.5001H10.5001H10.5001H10.5002H10.5002H10.5002H10.5003H10.5003H10.5003H10.5004H10.5004H10.5004H10.5005H10.5005H10.5005H10.5006H10.5006H10.5006H10.5007H10.5007H10.5007H10.5008H10.5008H10.5009H10.5009H10.5009H10.501H10.501H10.501H10.5011H10.5011H10.5011H10.5012H10.5012H10.5012H10.5013H10.5013H10.5013H10.5014H10.5014H10.5014H10.5015H10.5015H10.5015H10.5016H10.5016H10.5016H10.5017H10.5017H10.5017H10.5018H10.5018H10.5018H10.5019H10.5019H10.502H10.502H10.502H10.5021H10.5021H10.5021H10.5022H10.5022H10.5022H10.5023H10.5023H10.5023H10.5024H10.5024H10.5024H10.5025H10.5025H10.5025H10.5026H10.5026H10.5026H10.5027H10.5027H10.5027H10.5028H10.5028H10.5028H10.5029H10.5029H10.5029H10.503H10.503H10.5031H10.5031H10.5031H10.5032H10.5032H10.5032H10.5033H10.5033H10.5033H10.5034H10.5034H10.5034H10.5035H10.5035H10.5035H10.5036H10.5036H10.5036H10.5037H10.5037H10.5037H10.5038H10.5038H10.5038H10.5039H10.5039H10.5039H10.504H10.504H10.5041H10.5041H10.5041H10.5042H10.5042H10.5042H10.5043H10.5043H10.5043H10.5044H10.5044H10.5044H10.5045H10.5045H10.5045H10.5046H10.5046H10.5046H10.5047H10.5047H10.5047H10.5048H10.5048H10.5048H10.5049H10.5049H10.5049H10.505H10.505H10.5051H10.5051H10.5051H10.5052H10.5052H10.5052H10.5053H10.5053H10.5053H10.5054H10.5054H10.5054H10.5055H10.5055H10.5055H10.5056H10.5056H10.5056H10.5057H10.5057H10.5057H10.5058H10.5058H10.5059H10.5059H10.5059H10.506H10.506H10.506H10.5061H10.5061H10.5061H10.5062H10.5062H10.5062H10.5063H10.5063H10.5063H10.5064H10.5064H10.5064H10.5065H10.5065H10.5065H10.5066H10.5066H10.5067H10.5067H10.5067H10.5068H10.5068H10.5068H10.5069H10.5069H10.5069H10.507H10.507H10.507H10.5071H10.5071H10.5071H10.5072H10.5072H10.5072H10.5073H10.5073H10.5073H10.5074H10.5074H10.5075H10.5075H10.5075H10.5076H10.5076H10.5076H10.5077H10.5077H10.5077H10.5078H10.5078H10.5078H10.5079H10.5079H10.5079H10.508H10.508H10.5081H10.5081H10.5081H10.5082H10.5082H10.5082H10.5083H10.5083H10.5083H10.5084H10.5084H10.5084H10.5085H10.5085H10.5085H10.5086H10.5086H10.5086H10.5087H10.5087H10.5088H10.5088H10.5088H10.5089H10.5089H10.5089H10.509H10.509H10.509H10.5091H10.5091H10.5091H10.5092H10.5092H10.5093H10.5093H10.5093H10.5094H10.5094H10.5094H10.5095H10.5095H10.5095H10.5096H10.5096H10.5096H10.5097H10.5097H10.5097H10.5098H10.5098H10.5099H10.5099H10.5099H10.51H10.51H10.51H10.5101H10.5101H10.5101H10.5102H10.5102H10.5102H10.5103H10.5103H10.5104H10.5104H10.5104H10.5105H10.5105H10.5105H10.5106H10.5106H10.5106H10.5107H10.5107H10.5107H10.5108H10.5108H10.5109H10.5109H10.5109H10.511H10.511H10.511H10.5111H10.5111H10.5111H10.5112H10.5112H10.5112H10.5113H10.5113H10.5114H10.5114H10.5114H10.5115H10.5115H10.5115H10.5116H10.5116H10.5116H10.5117H10.5117H10.5118H10.5118H10.5118H10.5119H10.5119H10.5119H10.512H10.512H10.512H10.5121H10.5121H10.5122H10.5122H10.5122H10.5123H10.5123H10.5123H10.5124H10.5124H10.5124H10.5125H10.5125H10.5126H10.5126H10.5126H10.5127H10.5127H10.5127H10.5128H10.5128H10.5128H10.5129H10.5129H10.513H10.513H10.513H10.5131H10.5131H10.5131H10.5132H10.5132H10.5132H10.5133H10.5133H10.5134H10.5134H10.5134H10.5135H10.5135H10.5135H10.5136H10.5136H10.5136H10.5137H10.5137H10.5138H10.5138H10.5138H10.5139H10.5139H10.5139H10.514H10.514H10.5141H10.5141H10.5141H10.5142H10.5142H10.5142H10.5143H10.5143H10.5143H10.5144H10.5144H10.5145H10.5145H10.5145H10.5146H10.5146H10.5146H10.5147H10.5147H10.5148H10.5148H10.5148H10.5149H10.5149H10.5149H10.515H10.515H10.5151H10.5151H10.5151H10.5152H10.5152H10.5152H10.5153H10.5153H10.5154H10.5154H10.5154H10.5155H10.5155H10.5155H10.5156H10.5156H10.5157H10.5157H10.5157H10.5158H10.5158H10.5158H10.5159H10.5159H10.516H10.516H10.516H10.5161H10.5161H10.5161H10.5162H10.5162H10.5163H10.5163H10.5163H10.5164H10.5164H10.5164H10.5165H10.5165H10.5166H10.5166H10.5166H10.5167H10.5167H10.5167H10.5168H10.5168H10.5169H10.5169H10.5169H10.517H10.517H10.5171H10.5171H10.5171H10.5172H10.5172H10.5172H10.5173H10.5173H10.5174H10.5174H10.5174H10.5175H10.5175H10.5175H10.5176H10.5176H10.5177H10.5177H10.5177H10.5178H10.5178H10.5179H10.5179H10.5179H10.518H10.518H10.518H10.5181H10.5181H10.5182H10.5182H10.5182V18.374M10.4371 18.3649L10.5182 18.374M10.5182 18.374L10.5256 18.3734M10.5182 18.374L10.5256 18.3734M10.5256 18.3734C10.5525 18.3715 10.5792 18.3681 10.6057 18.3632C10.6464 18.3589 10.6867 18.3516 10.7263 18.3412L10.7263 18.3414M10.5256 18.3734L10.7263 18.3414M10.7263 18.3414L10.732 18.3395M10.7263 18.3414L10.732 18.3395M10.732 18.3395C10.7598 18.3304 10.7872 18.3198 10.8139 18.3076C10.8188 18.3057 10.8236 18.3041 10.8314 18.3015C10.8341 18.3006 10.8371 18.2995 10.8407 18.2983C10.8532 18.2941 10.8712 18.2878 10.8898 18.2779L10.8898 18.2779M10.732 18.3395L10.8898 18.2779M10.8898 18.2779L10.8925 18.2764M10.8898 18.2779L10.8925 18.2764M10.8925 18.2764C10.9052 18.2691 10.9152 18.2609 10.9199 18.2571M10.8925 18.2764L10.9199 18.2571M10.9573 18.2374L10.9573 18.2373C10.9429 18.2466 10.9285 18.252 10.9244 18.2536L10.9573 18.2374ZM10.9573 18.2374L10.959 18.2362M10.9573 18.2374L10.959 18.2362M10.959 18.2362C13.3333 16.6475 16.4314 16.6474 18.8058 18.2362M10.959 18.2362L18.8058 18.2362M10.9199 18.2571L10.9203 18.2567M10.9199 18.2571L10.9203 18.2567M10.9203 18.2567C10.9218 18.2555 10.9229 18.2546 10.9238 18.2539L10.9203 18.2567ZM18.8058 18.2362C19.1865 18.4921 19.7026 18.391 19.9586 18.0103C20.0517 17.8719 20.101 17.7087 20.1 17.5419V17.5422H20L20.1 17.5416L18.8058 18.2362ZM19.7303 2.36931C16.9594 0.516492 13.3757 0.408735 10.5 2.08727L19.7303 2.36931ZM9.66922 3.52103V16.1375C7.40807 15.1264 4.82267 15.1264 2.56152 16.1375V3.52103C4.75744 2.24006 7.4733 2.24006 9.66922 3.52103ZM18.4384 3.52103V16.1375C16.1773 15.1264 13.5919 15.1264 11.3307 16.1375V3.52103C13.5266 2.24006 16.2425 2.24006 18.4384 3.52103Z" fill="#1AB0C4" stroke="#1AB0C4" stroke-width="0.2"/>
</svg>
