<svg width="21" height="19" viewBox="0 0 21 19" fill="none" xmlns="http://www.w3.org/2000/svg">
<rect width="21" height="19" fill="#E5E5E5"/>
<g clip-path="url(#clip0_701_6771)">
<rect width="1440" height="2524" transform="translate(-255 -205)" fill="white"/>
<mask id="path-1-outside-1_701_6771" maskUnits="userSpaceOnUse" x="0" y="0" width="21" height="19" fill="black">
<rect fill="white" width="21" height="19"/>
<path d="M19.6748 2.45249C16.9195 0.610057 13.3512 0.513159 10.5 2.20329C7.64876 0.513159 4.08045 0.610057 1.32521 2.45249C1.12199 2.58805 0.999958 2.81623 1 3.06051V17.5421C0.999615 17.812 1.14798 18.06 1.38584 18.1874C1.62357 18.3146 1.91208 18.3006 2.13632 18.1509C4.54434 16.5396 7.68636 16.5396 10.0944 18.1509C10.1039 18.1575 10.1148 18.1589 10.1244 18.1648C10.1339 18.1706 10.1441 18.1808 10.1551 18.1874C10.1806 18.1983 10.2067 18.2078 10.2332 18.2159C10.2598 18.228 10.2872 18.2382 10.3151 18.2466C10.3554 18.256 10.3965 18.2621 10.4378 18.2649C10.459 18.2649 10.4788 18.2737 10.5 18.2737C10.5058 18.2737 10.5116 18.2737 10.5182 18.2737C10.5428 18.2719 10.5671 18.2687 10.5913 18.2642C10.6283 18.2605 10.665 18.2539 10.7009 18.2444C10.7258 18.2363 10.7502 18.2268 10.774 18.2159C10.7967 18.2064 10.8208 18.2013 10.8427 18.1896C10.853 18.1838 10.861 18.175 10.8712 18.1684C10.8815 18.1619 10.8932 18.1597 10.9034 18.1531C13.3114 16.5418 16.4534 16.5418 18.8615 18.1531C19.1964 18.3783 19.6504 18.2894 19.8757 17.9545C19.9576 17.8327 20.0009 17.689 20 17.5422V3.06051C20 2.81623 19.878 2.58805 19.6748 2.45249ZM9.76922 16.2933C7.45424 15.2078 4.7765 15.2078 2.46152 16.2933V3.46386C4.71369 2.12579 7.51705 2.12579 9.76922 3.46386V16.2933ZM18.5384 16.2933C16.2235 15.2078 13.5457 15.2078 11.2307 16.2933V3.46386C13.4829 2.12579 16.2863 2.12579 18.5384 3.46386V16.2933Z"/>
</mask>
<path d="M19.6748 2.45249C16.9195 0.610057 13.3512 0.513159 10.5 2.20329C7.64876 0.513159 4.08045 0.610057 1.32521 2.45249C1.12199 2.58805 0.999958 2.81623 1 3.06051V17.5421C0.999615 17.812 1.14798 18.06 1.38584 18.1874C1.62357 18.3146 1.91208 18.3006 2.13632 18.1509C4.54434 16.5396 7.68636 16.5396 10.0944 18.1509C10.1039 18.1575 10.1148 18.1589 10.1244 18.1648C10.1339 18.1706 10.1441 18.1808 10.1551 18.1874C10.1806 18.1983 10.2067 18.2078 10.2332 18.2159C10.2598 18.228 10.2872 18.2382 10.3151 18.2466C10.3554 18.256 10.3965 18.2621 10.4378 18.2649C10.459 18.2649 10.4788 18.2737 10.5 18.2737C10.5058 18.2737 10.5116 18.2737 10.5182 18.2737C10.5428 18.2719 10.5671 18.2687 10.5913 18.2642C10.6283 18.2605 10.665 18.2539 10.7009 18.2444C10.7258 18.2363 10.7502 18.2268 10.774 18.2159C10.7967 18.2064 10.8208 18.2013 10.8427 18.1896C10.853 18.1838 10.861 18.175 10.8712 18.1684C10.8815 18.1619 10.8932 18.1597 10.9034 18.1531C13.3114 16.5418 16.4534 16.5418 18.8615 18.1531C19.1964 18.3783 19.6504 18.2894 19.8757 17.9545C19.9576 17.8327 20.0009 17.689 20 17.5422V3.06051C20 2.81623 19.878 2.58805 19.6748 2.45249ZM9.76922 16.2933C7.45424 15.2078 4.7765 15.2078 2.46152 16.2933V3.46386C4.71369 2.12579 7.51705 2.12579 9.76922 3.46386V16.2933ZM18.5384 16.2933C16.2235 15.2078 13.5457 15.2078 11.2307 16.2933V3.46386C13.4829 2.12579 16.2863 2.12579 18.5384 3.46386V16.2933Z" fill="#1AB0C4"/>
<path d="M19.6748 2.45249C16.9195 0.610057 13.3512 0.513159 10.5 2.20329C7.64876 0.513159 4.08045 0.610057 1.32521 2.45249C1.12199 2.58805 0.999958 2.81623 1 3.06051V17.5421C0.999615 17.812 1.14798 18.06 1.38584 18.1874C1.62357 18.3146 1.91208 18.3006 2.13632 18.1509C4.54434 16.5396 7.68636 16.5396 10.0944 18.1509C10.1039 18.1575 10.1148 18.1589 10.1244 18.1648C10.1339 18.1706 10.1441 18.1808 10.1551 18.1874C10.1806 18.1983 10.2067 18.2078 10.2332 18.2159C10.2598 18.228 10.2872 18.2382 10.3151 18.2466C10.3554 18.256 10.3965 18.2621 10.4378 18.2649C10.459 18.2649 10.4788 18.2737 10.5 18.2737C10.5058 18.2737 10.5116 18.2737 10.5182 18.2737C10.5428 18.2719 10.5671 18.2687 10.5913 18.2642C10.6283 18.2605 10.665 18.2539 10.7009 18.2444C10.7258 18.2363 10.7502 18.2268 10.774 18.2159C10.7967 18.2064 10.8208 18.2013 10.8427 18.1896C10.853 18.1838 10.861 18.175 10.8712 18.1684C10.8815 18.1619 10.8932 18.1597 10.9034 18.1531C13.3114 16.5418 16.4534 16.5418 18.8615 18.1531C19.1964 18.3783 19.6504 18.2894 19.8757 17.9545C19.9576 17.8327 20.0009 17.689 20 17.5422V3.06051C20 2.81623 19.878 2.58805 19.6748 2.45249ZM9.76922 16.2933C7.45424 15.2078 4.7765 15.2078 2.46152 16.2933V3.46386C4.71369 2.12579 7.51705 2.12579 9.76922 3.46386V16.2933ZM18.5384 16.2933C16.2235 15.2078 13.5457 15.2078 11.2307 16.2933V3.46386C13.4829 2.12579 16.2863 2.12579 18.5384 3.46386V16.2933Z" stroke="#1AB0C4" stroke-width="0.4" mask="url(#path-1-outside-1_701_6771)"/>
</g>
<defs>
<clipPath id="clip0_701_6771">
<rect width="1440" height="2524" fill="white" transform="translate(-255 -205)"/>
</clipPath>
</defs>
</svg>
